<?xml version="1.0" standalone="no"?>
<!DOCTYPE svg PUBLIC "-//W3C//DTD SVG 20010904//EN"
 "http://www.w3.org/TR/2001/REC-SVG-20010904/DTD/svg10.dtd">
<svg version="1.0" xmlns="http://www.w3.org/2000/svg"
 width="512.000000pt" height="512.000000pt" viewBox="0 0 512.000000 512.000000"
 preserveAspectRatio="xMidYMid meet">
<metadata>
Created by potrace 1.11, written by Peter Selinger 2001-2013
</metadata>
<g transform="translate(0.000000,512.000000) scale(0.100000,-0.100000)"
fill="#000000" stroke="none">
<path d="M2447 5105 c-1 -2 -42 -5 -92 -9 -104 -7 -131 -11 -305 -43 -281 -50
-630 -195 -891 -369 -719 -480 -1143 -1268 -1143 -2124 0 -94 9 -252 19 -320
24 -184 60 -337 114 -492 58 -167 66 -185 110 -276 23 -45 41 -84 41 -86 0 -3
21 -40 46 -83 183 -309 350 -503 646 -750 41 -33 176 -126 252 -173 199 -121
494 -244 696 -290 241 -55 399 -74 625 -74 296 0 561 44 835 139 298 104 581
268 830 480 37 32 205 199 256 256 118 131 276 372 368 563 74 153 156 381
180 500 3 11 14 64 25 116 56 262 62 630 15 897 -56 321 -147 580 -300 849
-49 87 -134 218 -169 262 -7 9 -42 53 -77 97 -230 289 -581 555 -948 717 -140
61 -339 129 -425 144 -16 3 -57 11 -90 18 -33 8 -85 17 -115 22 -30 4 -64 9
-75 10 -81 12 -418 26 -428 19z"/>
</g>
</svg>
